<svg width="124.453903" height="18.099976" viewBox="0 0 124.454 18.1" fill="none" xmlns="http://www.w3.org/2000/svg" xmlns:xlink="http://www.w3.org/1999/xlink">
	<desc>
			Created with Pixso.
	</desc>
	<defs/>
	<path id="FASHION" d="M5.55 16.125C6.31667 16.225 7.04167 16.4667 7.725 16.85L7.725 17.8L5.96046e-08 17.8L5.96046e-08 16.85C0.266667 16.7 0.55 16.5667 0.85 16.45C1.15 16.3167 1.46667 16.2084 1.8 16.125L1.8 1.97502C1.41667 1.89169 1.075 1.78336 0.775 1.65002C0.491667 1.51669 0.233333 1.38336 5.96046e-08 1.25002L5.96046e-08 0.300022L13.075 0.300022C13.075 0.633358 13.0583 1.00002 13.025 1.40002C12.9917 1.78336 12.95 2.18336 12.9 2.60002C12.8667 3.00002 12.8167 3.40002 12.75 3.80002C12.7 4.18336 12.6417 4.54169 12.575 4.87502L11.55 4.87502L10.4 1.92502L5.55 1.92502L5.55 8.50002L9.125 8.50002L10.1 6.77502L10.875 6.77502C10.9917 7.62502 11.0417 8.50002 11.025 9.40002C11.0083 10.3 10.9583 11.125 10.875 11.875L10.1 11.875L9.125 10.125L5.55 10.125L5.55 16.125ZM20.1623 17.8L13.9873 17.8L13.9873 16.85C14.254 16.6834 14.5373 16.5417 14.8373 16.425C15.154 16.2917 15.4623 16.1917 15.7623 16.125L22.2123 2.28882e-05L24.0623 2.28882e-05L30.3373 16.125C30.6706 16.1917 31.004 16.2917 31.3373 16.425C31.6706 16.5417 31.9623 16.6834 32.2123 16.85L32.2123 17.8L24.3873 17.8L24.3873 16.85C24.704 16.7 25.0456 16.5584 25.4123 16.425C25.779 16.2917 26.129 16.1917 26.4623 16.125L25.0123 12.15L19.4623 12.15L17.9873 16.125C18.754 16.225 19.479 16.4667 20.1623 16.85L20.1623 17.8ZM20.0623 10.525L24.4873 10.525L22.8623 5.75002L22.3873 3.60002L22.3373 3.60002L21.7873 5.80002L20.0623 10.525ZM38.6252 15.725C38.8085 15.9084 39.0669 16.0834 39.4002 16.25C39.7335 16.4 40.1752 16.475 40.7252 16.475C41.6419 16.475 42.4002 16.2417 43.0002 15.775C43.6169 15.2917 43.9252 14.625 43.9252 13.775C43.9252 13.1584 43.7252 12.6417 43.3252 12.225C42.9419 11.8084 42.4502 11.425 41.8502 11.075C41.2502 10.725 40.6085 10.3834 39.9252 10.05C39.2419 9.70002 38.6002 9.29169 38.0002 8.82502C37.4002 8.35836 36.9002 7.80836 36.5002 7.17502C36.1169 6.52502 35.9252 5.72502 35.9252 4.77502C35.9252 3.95836 36.0752 3.25002 36.3752 2.65002C36.6752 2.05002 37.0835 1.55836 37.6002 1.17502C38.1335 0.775024 38.7585 0.483356 39.4752 0.300022C40.1919 0.100023 40.9669 2.28882e-05 41.8002 2.28882e-05C42.8169 2.28882e-05 43.7585 0.0750237 44.6252 0.225023C45.5085 0.358356 46.3002 0.575022 47.0002 0.875023C46.9835 1.20836 46.9502 1.59169 46.9002 2.02502C46.8669 2.45836 46.8169 2.89169 46.7502 3.32502C46.6835 3.74169 46.6085 4.14169 46.5252 4.52502C46.4585 4.89169 46.3919 5.20002 46.3252 5.45002L45.3002 5.45002L44.1502 2.02502C43.9502 1.92502 43.6502 1.83336 43.2502 1.75002C42.8669 1.66669 42.4669 1.62502 42.0502 1.62502C41.3502 1.62502 40.7585 1.80836 40.2752 2.17502C39.7919 2.54169 39.5502 3.07502 39.5502 3.77502C39.5502 4.40836 39.7502 4.95002 40.1502 5.40002C40.5502 5.83336 41.0502 6.23336 41.6502 6.60002C42.2502 6.96669 42.9002 7.33336 43.6002 7.70002C44.3169 8.05002 44.9752 8.45836 45.5752 8.92502C46.1752 9.39169 46.6752 9.94169 47.0752 10.575C47.4752 11.1917 47.6752 11.9584 47.6752 12.875C47.6752 14.5417 47.1085 15.8334 45.9752 16.75C44.8585 17.65 43.2085 18.1 41.0252 18.1C40.4919 18.1 39.9502 18.0667 39.4002 18C38.8669 17.9334 38.3585 17.8417 37.8752 17.725C37.3919 17.6084 36.9585 17.4834 36.5752 17.35C36.2085 17.2167 35.9335 17.075 35.7502 16.925C35.7669 16.5417 35.8085 16.1334 35.8752 15.7C35.9419 15.25 36.0085 14.8084 36.0752 14.375C36.1585 13.925 36.2419 13.5 36.3252 13.1C36.4085 12.7 36.4919 12.35 36.5752 12.05L37.6002 12.05L38.6252 15.725ZM59.2156 17.8L51.6406 17.8L51.6406 16.85C51.924 16.7 52.249 16.5584 52.6156 16.425C52.999 16.2917 53.3573 16.1917 53.6906 16.125L53.6906 1.97502C53.2906 1.90836 52.9073 1.80836 52.5406 1.67502C52.174 1.54169 51.874 1.40002 51.6406 1.25002L51.6406 0.300022L59.2156 0.300022L59.2156 1.25002C58.9656 1.41669 58.6823 1.56669 58.3656 1.70002C58.0656 1.83336 57.7573 1.92502 57.4406 1.97502L57.4406 8.02502L64.0656 8.02502L64.0656 1.97502C63.699 1.90836 63.3656 1.80836 63.0656 1.67502C62.7823 1.54169 62.524 1.40002 62.2906 1.25002L62.2906 0.300022L69.8656 0.300022L69.8656 1.25002C69.5823 1.43336 69.2573 1.58336 68.8906 1.70002C68.524 1.81669 68.1656 1.90836 67.8156 1.97502L67.8156 16.125C68.199 16.1917 68.5656 16.2917 68.9156 16.425C69.2823 16.5584 69.599 16.7 69.8656 16.85L69.8656 17.8L62.2906 17.8L62.2906 16.85C62.5406 16.7 62.8156 16.5584 63.1156 16.425C63.4156 16.2917 63.7323 16.1917 64.0656 16.125L64.0656 9.65002L57.4406 9.65002L57.4406 16.125C57.774 16.1917 58.0823 16.2834 58.3656 16.4C58.649 16.5167 58.9323 16.6667 59.2156 16.85L59.2156 17.8ZM81.4045 17.8L73.6045 17.8L73.6045 16.85C74.2712 16.4834 74.9462 16.2417 75.6295 16.125L75.6295 1.97502C75.2962 1.92502 74.9462 1.83336 74.5795 1.70002C74.2128 1.56669 73.8878 1.41669 73.6045 1.25002L73.6045 0.300022L81.4045 0.300022L81.4045 1.25002C81.1045 1.43336 80.7712 1.59169 80.4045 1.72502C80.0545 1.84169 79.7128 1.92502 79.3795 1.97502L79.3795 16.125C79.7128 16.1917 80.0545 16.2834 80.4045 16.4C80.7712 16.5167 81.1045 16.6667 81.4045 16.85L81.4045 17.8ZM85.6312 9.05002C85.6312 7.75002 85.8146 6.55002 86.1813 5.45002C86.5479 4.33336 87.0896 3.37502 87.8063 2.57502C88.5229 1.75836 89.4062 1.12502 90.4563 0.675022C91.5062 0.225023 92.7146 2.28882e-05 94.0813 2.28882e-05C95.4479 2.28882e-05 96.6562 0.225023 97.7063 0.675022C98.7562 1.12502 99.6312 1.75836 100.331 2.57502C101.048 3.37502 101.59 4.33336 101.956 5.45002C102.323 6.55002 102.506 7.75002 102.506 9.05002C102.506 10.35 102.323 11.5584 101.956 12.675C101.59 13.775 101.048 14.7334 100.331 15.55C99.6312 16.35 98.7562 16.975 97.7063 17.425C96.6562 17.875 95.4479 18.1 94.0813 18.1C92.7146 18.1 91.5062 17.875 90.4563 17.425C89.4062 16.975 88.5229 16.35 87.8063 15.55C87.0896 14.7334 86.5479 13.775 86.1813 12.675C85.8146 11.5584 85.6312 10.35 85.6312 9.05002ZM89.8812 9.05002C89.8812 10.1167 89.9646 11.1084 90.1312 12.025C90.2979 12.925 90.5563 13.7084 90.9062 14.375C91.2729 15.025 91.7312 15.5417 92.2812 15.925C92.8479 16.2917 93.5229 16.475 94.3063 16.475C95.0229 16.475 95.6312 16.2917 96.1312 15.925C96.6312 15.5417 97.0396 15.025 97.3562 14.375C97.6729 13.7084 97.8979 12.925 98.0312 12.025C98.1813 11.1084 98.2562 10.1167 98.2562 9.05002C98.2562 7.98336 98.1729 7.00002 98.0062 6.10002C97.8563 5.18336 97.6062 4.40002 97.2562 3.75002C96.9229 3.08336 96.4729 2.56669 95.9062 2.20002C95.3562 1.81669 94.6813 1.62502 93.8812 1.62502C93.1146 1.62502 92.4729 1.81669 91.9563 2.20002C91.4396 2.56669 91.0229 3.08336 90.7063 3.75002C90.4062 4.40002 90.1896 5.18336 90.0563 6.10002C89.9396 7.00002 89.8812 7.98336 89.8812 9.05002ZM118.254 0.300022L124.454 0.300022L124.454 1.25002C124.137 1.50002 123.787 1.72502 123.404 1.92502C123.021 2.10836 122.662 2.25002 122.329 2.35002L122.329 18.1L120.204 18.1L111.379 5.35002L110.379 3.42502L110.304 3.42502L110.529 5.42502L110.529 15.85C110.862 15.9334 111.229 16.075 111.629 16.275C112.046 16.4584 112.396 16.65 112.679 16.85L112.679 17.8L106.504 17.8L106.504 16.85C106.804 16.65 107.129 16.4667 107.479 16.3C107.846 16.1167 108.221 15.9667 108.604 15.85L108.604 2.20002C108.271 2.06669 107.937 1.91669 107.604 1.75002C107.271 1.58336 106.971 1.40836 106.704 1.22502L106.704 0.300022L112.104 0.300022L119.279 10.7L120.429 12.85L120.529 12.85L120.404 10.7L120.404 2.35002C120.004 2.21669 119.612 2.05836 119.229 1.87502C118.862 1.67502 118.537 1.46669 118.254 1.25002L118.254 0.300022Z" fill="#171717" fill-opacity="1.000000" fill-rule="evenodd"/>
</svg>
